HIERARCHY
ROOT Hips
{
 OFFSET 0.000000 0.000000 0.000000
 CHANNELS 6 Xposition Yposition Zposition Yrotation Xrotation Zrotation
 JOINT Chest
 {
  OFFSET 0.000000 9.585900 0.002600
  CHANNELS 3 Yrotation Xrotation Zrotation
  JOINT Chest2
  {
   OFFSET 0.000000 9.601200 -0.005300
   CHANNELS 3 Yrotation Xrotation Zrotation
   JOINT Chest3
   {
    OFFSET 0.000000 9.561800 0.000000
    CHANNELS 3 Yrotation Xrotation Zrotation
    JOINT Chest4
    {
     OFFSET 0.000000 9.552100 0.000000
     CHANNELS 3 Yrotation Xrotation Zrotation
     JOINT Neck
     {
      OFFSET 0.000000 14.453000 0.000000
      CHANNELS 3 Yrotation Xrotation Zrotation
      JOINT Head
      {
       OFFSET 0.000000 8.936500 -0.011300
       CHANNELS 3 Yrotation Xrotation Zrotation
       End Site
       {
        OFFSET 0.000000 17.073600 -0.006000
       }
      }
     }
     JOINT RightCollar
     {
      OFFSET -2.921100 9.558500 0.000000
      CHANNELS 3 Yrotation Xrotation Zrotation
      JOINT RightShoulder
      {
       OFFSET -13.519700 0.000000 0.000000
       CHANNELS 3 Yrotation Xrotation Zrotation
       JOINT RightElbow
       {
        OFFSET 0.000000 -29.696600 0.000000
        CHANNELS 3 Yrotation Xrotation Zrotation
        JOINT RightWrist
        {
         OFFSET 0.000000 -24.004700 0.000000
         CHANNELS 3 Yrotation Xrotation Zrotation
         End Site
         {
          OFFSET 0.000000 -17.728500 0.000000
         }
        }
       }
      }
     }
     JOINT LeftCollar
     {
      OFFSET 2.921100 9.558500 0.000000
      CHANNELS 3 Yrotation Xrotation Zrotation
      JOINT LeftShoulder
      {
       OFFSET 13.519700 0.000000 0.000000
       CHANNELS 3 Yrotation Xrotation Zrotation
       JOINT LeftElbow
       {
        OFFSET 0.000000 -29.696600 0.000000
        CHANNELS 3 Yrotation Xrotation Zrotation
        JOINT LeftWrist
        {
         OFFSET 0.000000 -24.004700 0.000000
         CHANNELS 3 Yrotation Xrotation Zrotation
         End Site
         {
          OFFSET 0.000000 -17.728500 0.000000
         }
        }
       }
      }
     }
    }
   }
  }
 }
 JOINT RightHip
 {
  OFFSET -7.771700 -0.012900 -0.001300
  CHANNELS 3 Yrotation Xrotation Zrotation
  JOINT RightKnee
  {
   OFFSET 0.000000 -40.869800 0.001200
   CHANNELS 3 Yrotation Xrotation Zrotation
   JOINT RightAnkle
   {
    OFFSET 0.000000 -39.717900 0.002100
    CHANNELS 3 Yrotation Xrotation Zrotation
    JOINT RightToe
    {
     OFFSET 0.000000 -4.965400 11.033500
     CHANNELS 3 Yrotation Xrotation Zrotation
     End Site
     {
      OFFSET 0.000000 -1.423100 5.872300
     }
    }
   }
  }
 }
 JOINT LeftHip
 {
  OFFSET 7.771700 -0.012900 -0.001300
  CHANNELS 3 Yrotation Xrotation Zrotation
  JOINT LeftKnee
  {
   OFFSET 0.000000 -40.869800 0.001200
   CHANNELS 3 Yrotation Xrotation Zrotation
   JOINT LeftAnkle
   {
    OFFSET 0.000000 -39.717900 0.002100
    CHANNELS 3 Yrotation Xrotation Zrotation
    JOINT LeftToe
    {
     OFFSET 0.000000 -4.965400 11.033500
     CHANNELS 3 Yrotation Xrotation Zrotation
     End Site
     {
      OFFSET 0.000000 -1.423100 5.872300
     }
    }
   }
  }
 }
}
MOTION
Frames: 16
Frame Time: 0.008333
0.000000 85.388000 0.000000 0.000000 -5.767877 0.000000 0.000000 11.653817 0.000000 0.000000 -5.885947 0.000000 0.000000 -0.000000 0.000000 0.000000 -0.000000 0.000000 0.000000 12.528835 0.000000 0.000000 0.711642 0.000000 0.000000 -0.000000 0.000000 0.000000 0.000000 -90.000000 0.000000 -2.309062 0.000000 0.000000 2.309062 0.000000 0.000000 -0.000000 0.000000 0.000000 -0.000000 90.000000 0.000000 -2.309062 0.000000 0.000000 2.309062 0.000000 0.000000 8.520406 0.000000 0.000000 1.905762 0.000000 -0.000000 -4.658285 0.000000 0.000000 -0.000000 0.000000 0.000000 8.520406 0.000000 0.000000 1.905762 0.000000 -0.000000 -4.658285 0.000000 0.000000 -0.000000 0.000000
-43.112297 44.160083 31.546494 175.736430 -20.172086 -1.229280 0.652527 17.112674 2.630785 0.015624 1.828498 0.327387 0.061396 2.994101 0.592522 0.483176 15.041534 2.821686 -1.139552 19.461375 -8.358291 0.691329 -4.777847 -8.865299 7.174606 -0.602264 -4.595328 -5.648773 -10.356977 0.777092 -50.249095 -80.584057 59.954847 -9.465733 2.600962 -45.701344 -19.979220 -2.342941 -4.544738 16.870971 -7.234303 -1.279808 -124.547525 -80.590246 121.263386 11.203191 4.596342 19.858821 -4.485465 -71.695815 15.079487 -150.743833 69.423716 -150.316226 -14.630749 -24.768864 9.799120 0.327443 -1.001519 0.191526 1.925738 -60.558343 -2.711339 174.676548 62.900384 174.887210 -1.105895 -36.837708 2.294399 0.113233 0.282733 0.026894
-43.102023 44.168662 31.543352 175.735822 -20.201952 -1.366865 0.690931 17.147563 2.763332 0.000343 1.851173 0.303208 0.065107 3.004678 0.593559 0.508383 15.059766 2.853150 -1.103367 19.420173 -8.368469 0.800653 -4.791715 -8.924072 7.186745 -0.639677 -4.596989 -5.638781 -10.344321 0.771906 -50.240222 -80.619002 59.938626 -9.500168 2.513848 -45.324144 -19.998329 -2.378150 -4.523060 16.801316 -7.209306 -1.254240 -124.598010 -80.610406 121.366587 11.186240 4.480055 19.851519 -4.712069 -71.614448 15.378766 -150.572027 69.458050 -150.111728 -14.622806 -24.755595 9.786113 0.341179 -0.970209 0.187300 1.676550 -60.538506 -2.410218 174.710825 62.879703 174.919299 -1.096951 -36.849124 2.295920 0.107342 0.278313 0.027774
-43.101399 44.173587 31.553255 175.650565 -20.149202 -1.438699 0.778021 17.115122 2.824342 0.004577 1.856818 0.309604 0.054196 3.044328 0.578520 0.552704 15.021404 2.899523 -1.026493 19.428485 -8.393658 0.856009 -4.828897 -8.956191 7.194507 -0.646150 -4.589786 -5.636203 -10.327299 0.768607 -50.245709 -80.661397 59.936800 -9.540566 2.442525 -44.904367 -20.033464 -2.361695 -4.504357 16.767192 -7.208938 -1.252108 -124.603343 -80.620225 121.408466 11.158188 4.382447 19.802659 -4.841871 -71.645513 15.643059 -150.293377 69.499879 -149.874909 -14.485925 -24.638562 9.762583 0.262213 -0.993351 0.192042 1.589897 -60.599058 -2.206130 174.728522 62.867747 174.936305 -1.103529 -36.854807 2.305257 0.106265 0.276633 0.036062
-43.102079 44.184269 31.551254 175.644810 -20.172743 -1.536964 0.773548 17.181257 2.849227 0.029403 1.843028 0.348988 0.070679 3.025763 0.600670 0.562869 15.086960 2.921098 -0.956686 19.385634 -8.427807 0.906750 -4.871489 -8.991685 7.215044 -0.653066 -4.568541 -5.680490 -10.312002 0.760326 -50.348661 -80.748558 60.060672 -9.586646 2.391726 -44.450345 -20.060787 -2.388390 -4.485231 16.742299 -7.217725 -1.255248 -124.328201 -80.628491 121.166991 11.137968 4.274328 19.710519 -5.002547 -71.597185 15.854143 -150.177538 69.525519 -149.742562 -14.443648 -24.541992 9.702426 0.247852 -1.025689 0.223318 1.472650 -60.580136 -2.030807 174.773830 62.855517 174.989200 -1.100229 -36.854470 2.328548 0.101794 0.264850 0.038274
-43.106522 44.192104 31.560096 175.580676 -20.129412 -1.606443 0.839088 17.158302 2.906398 0.031931 1.850297 0.353803 0.078411 3.035270 0.607464 0.585760 15.125313 2.961939 -0.906947 19.331691 -8.460409 0.969741 -4.912271 -9.037267 7.224891 -0.690612 -4.568276 -5.705075 -10.304156 0.755087 -50.344603 -80.806396 60.065146 -9.628175 2.364109 -43.972180 -20.086721 -2.420919 -4.468013 16.755859 -7.252007 -1.274472 -124.005654 -80.620301 120.859236 11.124583 4.206904 19.589033 -5.163520 -71.627990 16.110987 -150.042792 69.566183 -149.633848 -14.354620 -24.464238 9.666359 0.166493 -1.033058 0.235453 1.403910 -60.626956 -1.865580 174.793466 62.849622 175.010154 -1.091672 -36.853508 2.341810 0.089562 0.256370 0.037200
-43.108790 44.202931 31.563860 175.544100 -20.120061 -1.701833 0.886389 17.170844 2.986022 0.042915 1.841945 0.368287 0.069412 3.061338 0.600144 0.613910 15.148546 3.003980 -0.860695 19.291165 -8.490400 1.027475 -4.954852 -9.082476 7.230887 -0.733251 -4.581672 -5.728982 -10.273474 0.765534 -50.266228 -80.867787 59.991730 -9.678666 2.344616 -43.468429 -20.126203 -2.389623 -4.434484 16.763639 -7.295372 -1.318643 -123.951366 -80.595857 120.850504 11.115140 4.150466 19.443823 -5.264549 -71.615212 16.312196 -149.956855 69.620501 -149.530562 -14.352222 -24.368916 9.637463 0.148072 -1.052516 0.266832 1.285103 -60.640160 -1.670267 174.822080 62.840679 175.043609 -1.084630 -36.861838 2.351565 0.084862 0.253918 0.040717
-43.110833 44.216101 31.562880 175.537611 -20.139743 -1.810204 0.910057 17.212334 3.075630 0.052349 1.834714 0.378379 0.063308 3.088546 0.597247 0.637220 15.154770 3.037555 -0.842189 19.254048 -8.512971 1.105274 -4.989675 -9.136292 7.237381 -0.761170 -4.588827 -5.753741 -10.242235 0.775526 -50.138460 -80.922470 59.865935 -9.739411 2.329189 -42.949674 -20.148798 -2.362395 -4.409600 16.768381 -7.317650 -1.342802 -123.994284 -80.587530 120.928877 11.114190 4.080766 19.271734 -5.377636 -71.570777 16.500806 -149.915693 69.661074 -149.447512 -14.396453 -24.307134 9.607957 0.168021 -0.963998 0.249956 1.139630 -60.622587 -1.477388 174.851838 62.831395 175.081651 -1.067670 -36.870037 2.356504 0.078472 0.250277 0.044231
-43.121053 44.228878 31.561721 175.534676 -20.153846 -1.873046 0.924931 17.236567 3.130988 0.044522 1.855831 0.371861 0.067224 3.100529 0.605462 0.654543 15.127447 3.051091 -0.819252 19.250028 -8.521493 1.175733 -5.024293 -9.186871 7.251077 -0.728950 -4.555085 -5.778584 -10.241264 0.766806 -50.081528 -80.964734 59.811435 -9.793263 2.330458 -42.424326 -20.161444 -2.313109 -4.388027 16.769632 -7.325190 -1.354158 -124.157005 -80.603674 121.121798 11.119022 3.991406 19.073880 -5.476493 -71.543251 16.631823 -149.902443 69.678444 -149.418014 -14.413337 -24.259794 9.570080 0.197031 -0.916456 0.248638 1.081206 -60.606445 -1.392213 174.861602 62.829566 175.098821 -1.062600 -36.870507 2.369901 0.077813 0.244402 0.047731
-43.134815 44.240105 31.562595 175.515714 -20.150144 -1.911651 0.948988 17.241471 3.167806 0.038182 1.872695 0.368916 0.070319 3.112399 0.614052 0.679261 15.190635 3.114945 -0.795991 19.168425 -8.580516 1.214474 -5.060926 -9.228700 7.271634 -0.731903 -4.554429 -5.805548 -10.281838 0.738299 -50.013280 -81.006980 59.736018 -9.844725 2.347488 -41.878658 -20.173719 -2.363628 -4.383525 16.789377 -7.288767 -1.346734 -124.775356 -80.645072 121.745721 11.127810 3.883690 18.842534 -5.507681 -71.534906 16.710156 -149.939246 69.710198 -149.456308 -14.435981 -24.244765 9.566720 0.200189 -0.864764 0.238779 1.080888 -60.608075 -1.356430 174.859263 62.829391 175.106818 -1.063880 -36.867432 2.388560 0.077234 0.236303 0.048378
-43.145554 44.251007 31.561663 175.499168 -20.155088 -1.969618 0.960948 17.287902 3.201823 0.047742 1.857748 0.383952 0.070649 3.159145 0.623986 0.711492 15.183557 3.156301 -0.774855 19.122144 -8.617724 1.246581 -5.092761 -9.262649 7.279567 -0.726803 -4.554541 -5.816737 -10.294619 0.741414 -49.929966 -81.056051 59.630872 -9.895856 2.379260 -41.314219 -20.185069 -2.377628 -4.367347 16.810098 -7.273327 -1.355814 -125.417117 -80.719648 122.377225 11.140565 3.764179 18.559811 -5.518549 -71.509407 16.782275 -149.927277 69.734061 -149.426098 -14.461398 -24.275370 9.581699 0.200462 -0.790441 0.224828 1.036035 -60.603258 -1.271862 174.875540 62.823969 175.129330 -1.057508 -36.867973 2.404513 0.072243 0.227540 0.048582
-43.153731 44.261757 31.557202 175.503452 -20.178043 -2.049987 0.978888 17.320531 3.278524 0.042149 1.901327 0.377193 0.080817 3.139441 0.636122 0.734108 15.196335 3.186458 -0.756083 19.095452 -8.639575 1.267498 -5.117473 -9.283839 7.276834 -0.722123 -4.548917 -5.816646 -10.290015 0.760386 -49.880504 -81.116795 59.553861 -9.946969 2.427974 -40.742603 -20.197162 -2.372683 -4.343462 16.830337 -7.267449 -1.368888 -126.179761 -80.825995 123.115655 11.157043 3.639183 18.220356 -5.535203 -71.458712 16.865442 -149.947834 69.758871 -149.428757 -14.509738 -24.321675 9.640426 0.184563 -0.727892 0.194083 0.910896 -60.582144 -1.127436 174.890049 62.813086 175.141062 -1.056965 -36.873257 2.414550 0.067847 0.219948 0.044290
-43.166351 44.269743 31.554420 175.504225 -20.182380 -2.105400 0.991372 17.334393 3.329299 0.045845 1.904744 0.379780 0.086217 3.159568 0.639253 0.749547 15.196596 3.207617 -0.734622 19.082826 -8.648148 1.283112 -5.134530 -9.297398 7.277562 -0.709880 -4.531663 -5.816017 -10.281693 0.782813 -49.780118 -81.171591 59.424667 -9.987188 2.469645 -40.155684 -20.201787 -2.353330 -4.316778 16.859579 -7.261106 -1.376529 -127.159510 -80.958821 124.048624 11.176037 3.514076 17.836937 -5.578323 -71.435494 16.944356 -149.931835 69.768977 -149.398045 -14.546441 -24.357946 9.660094 0.198482 -0.687388 0.195976 0.897371 -60.578835 -1.094156 174.866398 62.806354 175.143095 -1.056307 -36.877930 2.427416 0.066645 0.216739 0.043427
-43.181930 44.275350 31.552468 175.488419 -20.175006 -2.140017 1.020555 17.350953 3.363070 0.046812 1.894058 0.385817 0.091794 3.175343 0.642920 0.749759 15.177517 3.213315 -0.699362 19.098330 -8.643275 1.292656 -5.149049 -9.303371 7.289500 -0.679225 -4.500334 -5.816801 -10.270415 0.806788 -49.588123 -81.221462 59.201491 -10.020900 2.494060 -39.546461 -20.191002 -2.310140 -4.288023 16.899827 -7.253031 -1.379124 -128.375668 -81.113355 125.192348 11.198093 3.389575 17.419371 -5.606763 -71.428218 17.010771 -149.905478 69.777624 -149.358021 -14.600757 -24.402619 9.666206 0.232234 -0.638157 0.208775 1.021159 -60.585211 -1.174941 174.809127 62.799674 175.152079 -1.050139 -36.885549 2.443920 0.064111 0.215484 0.043969
-43.205868 44.279462 31.548297 175.464804 -20.172486 -2.123182 1.039631 17.369801 3.343474 0.050323 1.897756 0.389575 0.094442 3.173771 0.653792 0.783402 15.193643 3.237695 -0.665003 19.102613 -8.635787 1.265527 -5.172261 -9.305923 7.271617 -0.677904 -4.485687 -5.817821 -10.259511 0.830722 -49.495162 -81.291634 59.088607 -10.055255 2.527972 -38.932382 -20.203290 -2.304724 -4.265221 16.948390 -7.241861 -1.372136 -129.872013 -81.290893 126.590061 11.229919 3.260430 16.972564 -5.519927 -71.423401 16.955057 -149.855828 69.770657 -149.334260 -14.604120 -24.457708 9.696875 0.227526 -0.601444 0.198140 1.141087 -60.580550 -1.261632 174.827995 62.798130 175.172134 -1.055916 -36.894960 2.476915 0.067128 0.214526 0.055146
-43.227202 44.282577 31.543301 175.456060 -20.172589 -2.128301 1.042258 17.396721 3.347391 0.051704 1.904456 0.394848 0.099405 3.158893 0.657167 0.833817 15.225099 3.287415 -0.714635 19.055599 -8.677426 1.305268 -5.160528 -9.296713 7.243281 -0.680852 -4.495080 -5.821402 -10.251532 0.855864 -49.363475 -81.364808 58.940178 -10.085369 2.530517 -38.291488 -20.234262 -2.344714 -4.277439 17.018621 -7.211635 -1.336150 -131.710780 -81.495681 128.300697 11.277605 3.118943 16.514422 -5.501507 -71.419762 16.956510 -149.799333 69.760560 -149.307263 -14.597091 -24.452197 9.736876 0.232562 -0.627236 0.180012 1.196950 -60.577335 -1.302876 174.828582 62.792700 175.174197 -1.062973 -36.904467 2.502920 0.069838 0.213078 0.057587
